<?xml version="1.0" encoding="UTF-8" standalone="no"?>
<!DOCTYPE svg PUBLIC "-//W3C//DTD SVG 1.1//EN" "http://www.w3.org/Graphics/SVG/1.1/DTD/svg11.dtd">
<svg width="100%" height="100%" viewBox="0 0 433 121" version="1.1" xmlns="http://www.w3.org/2000/svg" xmlns:xlink="http://www.w3.org/1999/xlink" xml:space="preserve" xmlns:serif="http://www.serif.com/" style="fill-rule:evenodd;clip-rule:evenodd;stroke-linejoin:round;stroke-miterlimit:2;">
    <g transform="matrix(1,0,0,1,-134,-34)">
        <g transform="matrix(0.618247,0,0,0.618247,134.832,34.5707)">
            <path d="M531.119,77.658L531.119,58.23C531.119,32.152 499.538,32.162 499.538,58.23L499.538,77.658L531.119,77.658ZM569.43,57.83L569.43,96.859C569.43,107.419 560.812,116.06 550.277,116.06L499.538,116.06L499.538,135.487C499.538,142.682 503.491,149.21 509.579,152.663C515.971,156.285 525.915,155.172 534.445,155.633C558.105,156.919 562.795,193.999 525.593,193.999L525.59,193.999C523.888,193.999 515.802,193.923 514.138,193.778C484.099,191.142 461.228,165.607 461.228,135.888L461.228,57.83C461.228,-19.047 569.43,-19.025 569.43,57.83Z"/>
            <path d="M183.102,124.341L170.345,120.922L170.345,58.554C170.345,47.736 161.494,38.888 150.68,38.888C139.864,38.888 131.013,47.744 131.013,58.554L131.013,69.84L143.771,73.257L143.771,135.627C143.771,146.442 152.621,155.293 163.437,155.293C174.252,155.293 183.102,146.437 183.102,135.627L183.102,124.341ZM92.702,58.154C92.702,26.27 118.787,0.18 150.677,0.18L150.68,0.18C182.565,0.18 208.654,26.27 208.654,58.154L208.654,127.758L221.413,131.17L221.413,136.026C221.413,167.909 195.328,194 163.441,194L163.437,194C131.551,194 105.462,167.909 105.462,136.026L105.462,66.423L92.704,63.004L92.702,58.154Z"/>
            <path d="M64.365,194L64.361,194C62.661,194 54.575,193.924 52.91,193.78C23.376,191.197 0,166.201 0,136.026L0,19.329C0,8.791 8.619,0.175 19.157,0.175L19.161,0.175C29.695,0.175 38.311,8.837 38.311,19.329L38.311,135.627C38.311,142.954 42.371,149.383 48.351,152.762C54.744,156.374 64.686,155.264 73.217,155.723C96.877,157.006 101.566,194 64.365,194Z"/>
            <path d="M245.425,174.85C245.425,185.388 254.044,194 264.576,194L264.578,194C275.117,194 283.734,185.38 283.734,174.85L283.734,111.715L303.628,111.715C314.164,111.715 322.78,103.092 322.78,92.558C322.78,82.021 314.135,73.406 303.628,73.406L283.734,73.406L283.734,58.55C283.734,51.225 287.79,44.79 293.77,41.415C300.164,37.801 310.11,38.91 318.639,38.452C342.298,37.169 346.988,0.175 309.786,0.175L309.784,0.175C308.082,0.175 299.992,0.253 298.333,0.396C268.8,2.978 245.425,27.972 245.425,58.15L245.425,174.85Z"/>
            <path d="M354.682,174.847C354.682,185.382 363.303,193.998 373.838,193.998L373.842,193.998C384.377,193.998 392.993,185.379 392.993,174.847L392.993,58.549C392.993,51.223 397.055,44.792 403.034,41.415C409.425,37.801 419.37,38.912 427.9,38.452C451.56,37.169 456.25,0.177 419.048,0.177L419.044,0.177C417.343,0.177 409.256,0.253 407.593,0.397C378.058,2.98 354.682,27.974 354.682,58.15L354.682,174.847Z"/>
            <path d="M659.456,77.658L659.456,58.23C659.456,32.152 627.881,32.162 627.881,58.23L627.881,77.658L659.456,77.658ZM697.765,57.83L697.765,96.859C697.765,107.419 689.149,116.06 678.613,116.06L627.881,116.06L627.881,135.487C627.881,142.682 631.834,149.21 637.922,152.663C644.313,156.285 654.258,155.172 662.788,155.633C686.448,156.919 691.138,193.999 653.935,193.999L653.932,193.999C652.23,193.999 644.144,193.923 642.48,193.778C612.442,191.142 589.571,165.607 589.571,135.888L589.571,57.83C589.571,-19.047 697.765,-19.025 697.765,57.83Z"/>
        </g>
    </g>
</svg>
