<?xml version="1.0" encoding="UTF-8" standalone="no"?>
<!DOCTYPE svg PUBLIC "-//W3C//DTD SVG 1.1//EN" "http://www.w3.org/Graphics/SVG/1.1/DTD/svg11.dtd">
<svg width="100%" height="100%" viewBox="0 0 1000 1505" version="1.1" xmlns="http://www.w3.org/2000/svg" xmlns:xlink="http://www.w3.org/1999/xlink" xml:space="preserve" xmlns:serif="http://www.serif.com/" style="fill-rule:evenodd;clip-rule:evenodd;stroke-linejoin:round;stroke-miterlimit:2;">
    <g transform="matrix(1,0,0,1,-554,-302)">
        <g transform="matrix(4.16667,0,0,4.16667,0,0)">
            <path d="M301.428,303.84L277.667,297.472L277.667,181.305C277.667,161.157 261.183,144.676 241.038,144.676C220.894,144.676 204.41,161.171 204.41,181.305L204.41,202.327L228.172,208.691L228.172,324.862C228.172,345.007 244.656,361.49 264.8,361.49C284.945,361.49 301.428,344.996 301.428,324.862L301.428,303.84ZM133.052,189.604L133.052,180.561C133.052,121.174 181.637,72.578 241.034,72.578L241.038,72.578C300.428,72.578 349.021,121.174 349.021,180.561L349.021,310.205L372.783,316.573L372.787,316.558L372.787,325.605C372.787,384.989 324.201,433.585 264.807,433.585L264.8,433.585C205.41,433.585 156.817,384.989 156.817,325.605L156.817,195.962L133.055,189.594L133.052,189.604Z" style="fill:white;"/>
        </g>
    </g>
</svg>
